<svg xmlns="http://www.w3.org/2000/svg" xmlns:xlink="http://www.w3.org/1999/xlink" viewBox="0 0 165 165">
  <defs>
    <style>
      .cls-1 {
        fill: #5b9ec7;
      }

      .cls-2 {
        clip-path: url(#clip-path);
      }

      .cls-3 {
        fill: #1372aa;
      }
    </style>
    <clipPath id="clip-path">
      <circle id="Ellipse_40" data-name="Ellipse 40" class="cls-1" cx="82.5" cy="82.5" r="82.5" transform="translate(177 110)"/>
    </clipPath>
  </defs>
  <g id="Group_365" data-name="Group 365" transform="translate(-6721 2880)">
    <circle id="Ellipse_41" data-name="Ellipse 41" class="cls-1" cx="82.5" cy="82.5" r="82.5" transform="translate(6721 -2880)"/>
    <g id="Mask_Group_2" data-name="Mask Group 2" class="cls-2" transform="translate(6544 -2990)">
      <g id="Group_361" data-name="Group 361" transform="translate(199.378 131.135)">
        <g id="Group_359" data-name="Group 359" transform="translate(26.413 21.145)">
          <path id="Path_197" data-name="Path 197" class="cls-3" d="M2424.581,1389.407c-8.276,0-20.028-13.26-22.105-16.674a38.6,38.6,0,0,1-3.922-9.553l-.14-.046c-5.891-2.215-7.983-11.044-7.921-16.105.03-2.8.66-4.43,1.876-4.845a4.1,4.1,0,0,1,1.662-.2l.753.078.154.753c.4,2,.878,3.923,1.308,5.461-1-12.336,3.584-22.843,7.368-26.381l.431-.4.569.168c12.63,3.877,28.505,3.83,40.98-.2l.8-.261.416.723c.307.539,7.061,12.675,6.245,26.643.415-1.6.907-3.646,1.307-5.768l.154-.785,1.015-.047a4.026,4.026,0,0,1,1.278.216c1.214.415,1.846,2.046,1.876,4.845.061,5.061-2.045,13.89-7.921,16.105l-.139.046a38.883,38.883,0,0,1-3.923,9.553C2444.608,1376.146,2432.856,1389.407,2424.581,1389.407Zm-31.473-45.3c-.016,0-.047.015-.062.015-.307.278-.891,2.708-.154,6.845.354,1.985,1.861,8.6,6.245,10.246a2.387,2.387,0,0,0,.263.061l.814.2.155.585a37.642,37.642,0,0,0,3.844,9.6c1.816,3,13.121,15.69,20.352,15.69s18.537-12.691,20.352-15.69a37.03,37.03,0,0,0,3.844-9.6l.155-.585.815-.2a2.371,2.371,0,0,0,.262-.061c4.4-1.646,5.891-8.261,6.245-10.246.677-3.753.246-6.091-.109-6.737-.876,4.338-2,7.953-2.046,8.123l-.153.292a1.961,1.961,0,0,1-2.845-.03,1.653,1.653,0,0,1-.4-1.323c1.738-12.583-3.785-24.581-5.322-27.612a74.566,74.566,0,0,1-40.8.138c-3.275,3.569-8.014,14.521-5.937,27.458a1.614,1.614,0,0,1-.369,1.339,1.961,1.961,0,0,1-2.845.046l-.155-.292C2395.23,1352.2,2394.047,1348.52,2393.108,1344.1Z" transform="translate(-2390.491 -1321.2)"/>
        </g>
        <path id="Path_198" data-name="Path 198" class="cls-3" d="M2470.14,1216.252c0-9.63-.707-24.258-10.721-23.459,0,0,.661-8.183-14.322-8.722-5.276-.185-38.3-5.338-38.1,32.55,0,.369.016.708.031,1.062-.031,1-.031,1.984.03,2.953a45.011,45.011,0,0,0,.846,6.045,89.212,89.212,0,0,0,2.338,9.03c.323.431,1.508.169,1.369-.615-2.123-13.244,2.77-25.151,6.645-28.781a72.025,72.025,0,0,0,41.6-.2s7.907,13.983,5.83,28.981c-.107.785,1.076,1.046,1.4.615a92.592,92.592,0,0,0,2.231-9.045,42.869,42.869,0,0,0,.83-7.26c0-.4-.015-.877-.045-1.415C2470.125,1217.437,2470.14,1216.852,2470.14,1216.252Z" transform="translate(-2378.045 -1183.739)"/>
        <path id="Path_199" data-name="Path 199" class="cls-3" d="M2339.328,1812.52c-.369-7.122-6.368-11.03-14.09-13.506-6-1.923-13.046-2.969-19.291-4a10.6,10.6,0,0,1-1.46-.339c-.154-.046-.292-.107-.432-.154-.306-.107-.614-.23-.906-.353l-.462-.231c-.26-.138-.507-.276-.753-.431-.138-.093-.277-.184-.416-.292-.23-.169-.46-.338-.677-.523l-.369-.323c-.214-.2-.429-.431-.63-.646-.094-.108-.2-.215-.293-.323-.214-.261-.43-.538-.63-.83-.063-.077-.123-.169-.185-.246a17.3,17.3,0,0,1-1.369-2.523h0s-5.568,8.014-18.121,8.014c-12.458,0-18.058-8.014-18.058-8.014h0a15.111,15.111,0,0,1-1.355,2.507c-.06.092-.137.184-.2.277-.2.277-.4.553-.615.8a3.159,3.159,0,0,1-.307.338c-.2.216-.4.431-.616.631-.123.107-.245.23-.368.338-.215.185-.446.354-.677.523a4.137,4.137,0,0,1-.43.292c-.247.154-.493.293-.754.431-.154.077-.309.17-.462.246a9.138,9.138,0,0,1-.906.354c-.139.046-.277.108-.433.154a10.574,10.574,0,0,1-1.46.338c-6.245,1.015-13.29,2.077-19.3,4-7.722,2.477-13.722,6.384-14.091,13.507-.662,12.659-.339,49.516-.339,49.516h120.77C2339.666,1862.036,2339.989,1825.18,2339.328,1812.52Z" transform="translate(-2218.787 -1694.878)"/>
        <g id="Group_360" data-name="Group 360" transform="translate(42.612 82.737)">
          <path id="Path_200" data-name="Path 200" class="cls-3" d="M2513.658,1740.49c-11.937,0-17.336-7.522-17.551-7.846l-.308-.43.215-.492a26.055,26.055,0,0,0,1.832-8.168l.169-1.954,1.43,1.338c5.722,5.292,10.769,8.215,14.244,8.215,3.508,0,8.553-2.907,14.245-8.183l1.43-1.339.169,1.954a25.928,25.928,0,0,0,1.832,8.153l.215.493-.307.431C2531.041,1732.968,2525.625,1740.49,2513.658,1740.49Zm-15.675-8.537c1.261,1.507,6.261,6.63,15.675,6.63,9.447,0,14.476-5.154,15.722-6.646a26.879,26.879,0,0,1-1.569-6.337c-4.153,3.646-9.568,7.445-14.136,7.445-4.539,0-9.969-3.815-14.136-7.461A26.507,26.507,0,0,1,2497.984,1731.953Z" transform="translate(-2495.799 -1721.6)"/>
        </g>
      </g>
    </g>
  </g>
</svg>
